<svg width="39" height="39" viewBox="0 0 39 39" fill="none" xmlns="http://www.w3.org/2000/svg">
<path d="M19.5 0C8.7 0 0 8.7 0 19.4C0 30.1 8.7 38.8 19.5 38.8C30.3 38.8 39 30.2 39 19.4C39 14.2 36.9 9.3 33.3 5.7C29.6 2 24.6 0 19.5 0ZM14.3 24.7L11.9 23.7V15.2L14.3 14.2V24.7ZM25.5 26.2C25 26.6 24.5 26.9 23.9 27.1C22.6 27.5 21.2 27.5 19.9 27.1C19.3 26.9 18.7 26.6 18.3 26.2C17.8 25.8 17.5 25.3 17.2 24.8C16.9 24.2 16.8 23.5 16.8 22.8C16.8 22.3 16.9 21.9 17 21.5C17.1 21.1 17.3 20.7 17.6 20.4C17.9 20.1 18.2 19.8 18.5 19.6L18.7 19.5L20.8 20.4C20.5 20.5 20.3 20.7 20.1 20.8C19.9 21 19.7 21.3 19.5 21.6C19.4 21.9 19.3 22.2 19.3 22.6C19.3 23.3 19.5 23.9 20 24.4C21.1 25.3 22.6 25.3 23.7 24.4C24.2 23.9 24.4 23.3 24.4 22.6C24.4 22.3 24.3 21.9 24.2 21.6C24.1 21.3 23.9 21.1 23.6 20.8C23.4 20.6 23.1 20.4 22.8 20.3C22.5 20.2 22.3 20.2 22 20.1L19.1 18.9C18.5 18.7 18 18.3 17.7 17.7C17.3 17 17.1 16.3 17.1 15.5C17.1 14.9 17.2 14.3 17.5 13.8C17.7 13.3 18.1 12.9 18.5 12.5C18.9 12.2 19.5 11.9 20 11.7C21.2 11.3 22.5 11.3 23.7 11.7C24.2 11.9 24.7 12.1 25.2 12.5C25.6 12.8 26 13.3 26.3 13.8C26.5 14.3 26.7 14.9 26.7 15.5C26.7 16.3 26.5 17 26.1 17.7C25.9 18.1 25.6 18.4 25.2 18.6L23 17.7C23.2 17.6 23.4 17.5 23.6 17.3C24 16.9 24.2 16.3 24.2 15.8C24.2 15.3 24 14.7 23.6 14.3C23.2 13.9 22.6 13.7 22.1 13.7C21.5 13.7 21 13.9 20.6 14.3C20.2 14.7 20 15.2 20 15.8C20 16.1 20.1 16.4 20.2 16.6C20.3 16.9 20.5 17.1 20.7 17.3C20.9 17.5 25.2 19.2 25.5 19.4L25.6 19.5C25.9 19.7 26.2 20 26.5 20.3C26.8 20.6 27 21 27.1 21.4C27.3 21.8 27.3 22.3 27.3 22.7C27.3 23.4 27.2 24.1 26.9 24.7C26.4 25.3 26 25.8 25.5 26.2Z" fill="#151515"/>
</svg>
